<?xml version="1.0" encoding="UTF-8"?>
<svg xmlns="http://www.w3.org/2000/svg" xmlns:xlink="http://www.w3.org/1999/xlink" width="375pt" height="374.999991pt" viewBox="0 0 375 374.999991" version="1.2">
<defs>
<clipPath id="clip1">
  <path d="M 112.5 122 L 262.5 122 L 262.5 262.5 L 112.5 262.5 Z M 112.5 122 "/>
</clipPath>
<clipPath id="clip2">
  <path d="M 112.5 122 L 262.5 122 L 262.5 154 L 112.5 154 Z M 112.5 122 "/>
</clipPath>
<clipPath id="clip3">
  <path d="M 182 112.5 L 193 112.5 L 193 139 L 182 139 Z M 182 112.5 "/>
</clipPath>
<clipPath id="clip4">
  <path d="M 140 112.5 L 152 112.5 L 152 139 L 140 139 Z M 140 112.5 "/>
</clipPath>
<clipPath id="clip5">
  <path d="M 223 112.5 L 235 112.5 L 235 139 L 223 139 Z M 223 112.5 "/>
</clipPath>
</defs>
<g id="surface1">
<g clip-path="url(#clip1)" clip-rule="nonzero">
<path style=" stroke:none;fill-rule:nonzero;fill:rgb(92.549133%,94.509888%,95.689392%);fill-opacity:1;" d="M 122.84375 262.5 L 252.15625 262.5 C 257.867188 262.5 262.5 257.867188 262.5 252.15625 L 262.5 133.191406 C 262.5 127.476562 257.867188 122.84375 252.15625 122.84375 L 122.84375 122.84375 C 117.132812 122.84375 112.5 127.476562 112.5 133.191406 L 112.5 252.15625 C 112.5 257.867188 117.132812 262.5 122.84375 262.5 "/>
</g>
<g clip-path="url(#clip2)" clip-rule="nonzero">
<path style=" stroke:none;fill-rule:nonzero;fill:rgb(76.469421%,77.249146%,76.858521%);fill-opacity:1;" d="M 262.5 133.191406 L 262.5 153.878906 L 112.5 153.878906 L 112.5 133.191406 C 112.5 127.476562 117.132812 122.84375 122.84375 122.84375 L 252.15625 122.84375 C 257.867188 122.84375 262.5 127.476562 262.5 133.191406 "/>
</g>
<path style=" stroke:none;fill-rule:nonzero;fill:rgb(76.469421%,77.249146%,76.858521%);fill-opacity:1;" d="M 246.984375 187.5 L 236.636719 187.5 L 236.636719 177.15625 L 246.984375 177.15625 L 246.984375 187.5 "/>
<path style=" stroke:none;fill-rule:nonzero;fill:rgb(76.469421%,77.249146%,76.858521%);fill-opacity:1;" d="M 195.257812 239.222656 L 184.914062 239.222656 L 184.914062 228.878906 L 195.257812 228.878906 L 195.257812 239.222656 "/>
<path style=" stroke:none;fill-rule:nonzero;fill:rgb(76.469421%,77.249146%,76.858521%);fill-opacity:1;" d="M 195.257812 239.222656 L 184.914062 239.222656 L 184.914062 228.878906 L 195.257812 228.878906 L 195.257812 239.222656 "/>
<path style=" stroke:none;fill-rule:nonzero;fill:rgb(76.469421%,77.249146%,76.858521%);fill-opacity:1;" d="M 169.398438 187.5 L 159.050781 187.5 L 159.050781 177.15625 L 169.398438 177.15625 L 169.398438 187.5 "/>
<path style=" stroke:none;fill-rule:nonzero;fill:rgb(76.469421%,77.249146%,76.858521%);fill-opacity:1;" d="M 143.535156 213.363281 L 133.191406 213.363281 L 133.191406 203.015625 L 143.535156 203.015625 L 143.535156 213.363281 "/>
<path style=" stroke:none;fill-rule:nonzero;fill:rgb(76.469421%,77.249146%,76.858521%);fill-opacity:1;" d="M 169.398438 213.363281 L 159.050781 213.363281 L 159.050781 203.015625 L 169.398438 203.015625 L 169.398438 213.363281 "/>
<path style=" stroke:none;fill-rule:nonzero;fill:rgb(76.469421%,77.249146%,76.858521%);fill-opacity:1;" d="M 143.535156 239.222656 L 133.191406 239.222656 L 133.191406 228.878906 L 143.535156 228.878906 L 143.535156 239.222656 "/>
<path style=" stroke:none;fill-rule:nonzero;fill:rgb(76.469421%,77.249146%,76.858521%);fill-opacity:1;" d="M 169.398438 239.222656 L 159.050781 239.222656 L 159.050781 228.878906 L 169.398438 228.878906 L 169.398438 239.222656 "/>
<g clip-path="url(#clip3)" clip-rule="nonzero">
<path style=" stroke:none;fill-rule:nonzero;fill:rgb(47.44873%,50.588989%,52.938843%);fill-opacity:1;" d="M 187.5 138.363281 C 184.644531 138.363281 182.328125 136.046875 182.328125 133.191406 L 182.328125 117.671875 C 182.328125 114.816406 184.644531 112.5 187.5 112.5 C 190.355469 112.5 192.671875 114.816406 192.671875 117.671875 L 192.671875 133.191406 C 192.671875 136.046875 190.355469 138.363281 187.5 138.363281 "/>
</g>
<g clip-path="url(#clip4)" clip-rule="nonzero">
<path style=" stroke:none;fill-rule:nonzero;fill:rgb(47.44873%,50.588989%,52.938843%);fill-opacity:1;" d="M 146.121094 138.363281 C 143.265625 138.363281 140.949219 136.046875 140.949219 133.191406 L 140.949219 117.671875 C 140.949219 114.816406 143.265625 112.5 146.121094 112.5 C 148.976562 112.5 151.292969 114.816406 151.292969 117.671875 L 151.292969 133.191406 C 151.292969 136.046875 148.976562 138.363281 146.121094 138.363281 "/>
</g>
<g clip-path="url(#clip5)" clip-rule="nonzero">
<path style=" stroke:none;fill-rule:nonzero;fill:rgb(47.44873%,50.588989%,52.938843%);fill-opacity:1;" d="M 228.878906 138.363281 C 226.023438 138.363281 223.707031 136.046875 223.707031 133.191406 L 223.707031 117.671875 C 223.707031 114.816406 226.023438 112.5 228.878906 112.5 C 231.734375 112.5 234.050781 114.816406 234.050781 117.671875 L 234.050781 133.191406 C 234.050781 136.046875 231.734375 138.363281 228.878906 138.363281 "/>
</g>
<path style=" stroke:none;fill-rule:nonzero;fill:rgb(95.689392%,79.219055%,12.939453%);fill-opacity:1;" d="M 215.804688 213.363281 L 203.015625 206.292969 L 190.230469 213.363281 L 192.671875 198.390625 L 182.328125 187.789062 L 196.625 185.605469 L 203.015625 171.984375 L 209.410156 185.605469 L 223.707031 187.789062 L 213.363281 198.390625 L 215.804688 213.363281 "/>
<path style=" stroke:none;fill-rule:nonzero;fill:rgb(76.469421%,77.249146%,76.858521%);fill-opacity:1;" d="M 246.984375 213.363281 L 236.636719 213.363281 L 236.636719 203.015625 L 246.984375 203.015625 L 246.984375 213.363281 "/>
<path style=" stroke:none;fill-rule:nonzero;fill:rgb(76.469421%,77.249146%,76.858521%);fill-opacity:1;" d="M 246.984375 239.222656 L 236.636719 239.222656 L 236.636719 228.878906 L 246.984375 228.878906 L 246.984375 239.222656 "/>
<path style=" stroke:none;fill-rule:nonzero;fill:rgb(76.469421%,77.249146%,76.858521%);fill-opacity:1;" d="M 221.121094 239.222656 L 210.777344 239.222656 L 210.777344 228.878906 L 221.121094 228.878906 L 221.121094 239.222656 "/>
</g>
</svg>
