<?xml version="1.0" encoding="UTF-8"?>
<svg xmlns="http://www.w3.org/2000/svg" xmlns:xlink="http://www.w3.org/1999/xlink" width="375pt" height="374.999991pt" viewBox="0 0 375 374.999991" version="1.2">
<g id="surface1">
<path style=" stroke:none;fill-rule:nonzero;fill:rgb(100%,100%,100%);fill-opacity:1;" d="M 187.339844 -0.109375 C 83.8125 -0.109375 -0.109375 83.8125 -0.109375 187.339844 C -0.109375 290.863281 83.8125 374.785156 187.339844 374.785156 C 290.863281 374.785156 374.785156 290.863281 374.785156 187.339844 C 374.785156 83.8125 290.863281 -0.109375 187.339844 -0.109375 Z M 187.335938 73.804688 C 218.613281 73.804688 243.976562 99.164062 243.976562 130.445312 C 243.976562 161.726562 218.617188 187.089844 187.335938 187.089844 C 156.050781 187.089844 130.691406 161.730469 130.691406 130.445312 C 130.691406 99.164062 156.050781 73.804688 187.335938 73.804688 Z M 187.871094 288.558594 L 104.6875 288.558594 C 104.6875 232.738281 135.058594 212.863281 154.976562 195.027344 C 164.628906 200.214844 175.636719 203.191406 187.335938 203.277344 C 199.027344 203.191406 210.035156 200.214844 219.683594 195.027344 C 239.609375 212.867188 269.980469 232.738281 269.980469 288.558594 Z M 187.871094 288.558594 "/>
</g>
</svg>
