<?xml version="1.0" encoding="UTF-8"?>
<svg xmlns="http://www.w3.org/2000/svg" xmlns:xlink="http://www.w3.org/1999/xlink" width="375pt" height="374.999991pt" viewBox="0 0 375 374.999991" version="1.2">
<defs>
<clipPath id="clip1">
  <path d="M 112.5 128 L 178 128 L 178 242 L 112.5 242 Z M 112.5 128 "/>
</clipPath>
<clipPath id="clip2">
  <path d="M 179 130 L 262.5 130 L 262.5 242 L 179 242 Z M 179 130 "/>
</clipPath>
<clipPath id="clip3">
  <path d="M 142 128 L 232 128 L 232 248.34375 L 142 248.34375 Z M 142 128 "/>
</clipPath>
</defs>
<g id="surface1">
<path style=" stroke:none;fill-rule:nonzero;fill:rgb(100%,100%,100%);fill-opacity:1;" d="M 154.636719 192.859375 C 154.359375 191.832031 154.152344 190.714844 154 189.5625 C 161.878906 188.308594 166.429688 186.105469 166.429688 186.105469 C 166.429688 186.105469 164.050781 178.789062 164.433594 171.167969 C 167.320312 171.492188 169.078125 159.027344 167.460938 157.617188 C 167.03125 157.242188 166.546875 157.191406 166.0625 157.316406 C 166.785156 152.820312 167.5625 148.777344 166.695312 146.777344 C 162.699219 137.539062 154.300781 126.28125 141.4375 131.769531 C 133.125 127.511719 121.40625 139.066406 118.550781 147.671875 C 117.84375 149.808594 119.132812 153.347656 120.332031 157.277344 C 119.925781 157.222656 119.527344 157.300781 119.167969 157.617188 C 117.53125 159.042969 119.351562 171.804688 122.300781 171.152344 C 122.742188 179.230469 120.792969 186.105469 120.792969 186.105469 C 120.792969 186.105469 125.523438 188.65625 134.304688 189.832031 C 134.136719 191.039062 133.898438 192.203125 133.5625 193.257812 C 131.394531 194.109375 116.539062 200.128906 114.824219 206.015625 L 115.03125 230.433594 C 115.03125 230.433594 119.792969 238.3125 143.234375 238.984375 C 166.671875 239.65625 175.480469 230.433594 175.480469 230.433594 L 175.6875 206.015625 C 173.886719 199.039062 155.644531 193.175781 154.636719 192.859375 "/>
<g clip-path="url(#clip1)" clip-rule="nonzero">
<path style=" stroke:none;fill-rule:nonzero;fill:rgb(13.729858%,12.159729%,12.548828%);fill-opacity:1;" d="M 154.636719 192.859375 L 156.824219 192.273438 C 156.582031 191.367188 156.390625 190.34375 156.25 189.269531 L 154 189.5625 L 154.359375 191.792969 C 162.511719 190.492188 167.265625 188.210938 167.421875 188.136719 C 168.433594 187.644531 168.933594 186.476562 168.585938 185.40625 L 168.25 185.515625 L 168.585938 185.40625 L 168.25 185.515625 L 168.585938 185.40625 C 168.574219 185.371094 168.085938 183.851562 167.605469 181.527344 C 167.128906 179.207031 166.65625 176.078125 166.660156 172.859375 C 166.660156 172.332031 166.671875 171.804688 166.699219 171.28125 L 164.433594 171.167969 L 164.183594 173.414062 C 164.308594 173.425781 164.425781 173.433594 164.542969 173.433594 C 164.972656 173.433594 165.394531 173.34375 165.757812 173.203125 C 166.097656 173.066406 166.394531 172.886719 166.644531 172.695312 C 167.117188 172.335938 167.453125 171.929688 167.742188 171.511719 C 168.242188 170.773438 168.601562 169.972656 168.917969 169.09375 C 169.382812 167.785156 169.726562 166.320312 169.972656 164.84375 C 170.210938 163.367188 170.34375 161.894531 170.34375 160.574219 C 170.34375 159.746094 170.292969 158.980469 170.152344 158.25 C 170.082031 157.882812 169.984375 157.523438 169.824219 157.140625 C 169.738281 156.949219 169.640625 156.75 169.503906 156.542969 C 169.367188 156.339844 169.191406 156.121094 168.957031 155.917969 L 168.953125 155.914062 C 168.617188 155.617188 168.214844 155.375 167.789062 155.21875 C 167.367188 155.0625 166.925781 154.996094 166.523438 154.996094 C 166.148438 154.996094 165.796875 155.050781 165.484375 155.136719 L 166.0625 157.316406 L 168.300781 157.675781 C 168.546875 156.148438 168.804688 154.648438 169.003906 153.230469 C 169.199219 151.808594 169.34375 150.472656 169.34375 149.21875 C 169.34375 148.644531 169.3125 148.085938 169.230469 147.53125 C 169.148438 146.976562 169.011719 146.425781 168.777344 145.882812 C 167.0625 141.925781 164.59375 137.601562 161.207031 134.136719 C 159.511719 132.410156 157.578125 130.898438 155.375 129.808594 C 153.175781 128.71875 150.699219 128.0625 148.035156 128.0625 C 145.65625 128.0625 143.136719 128.582031 140.542969 129.691406 L 141.4375 131.769531 L 142.472656 129.757812 C 140.910156 128.957031 139.230469 128.59375 137.574219 128.597656 C 135.171875 128.597656 132.839844 129.320312 130.648438 130.441406 C 127.367188 132.132812 124.359375 134.742188 121.875 137.671875 C 120.632812 139.132812 119.527344 140.679688 118.597656 142.25 C 117.667969 143.816406 116.917969 145.402344 116.398438 146.964844 L 116.398438 146.960938 C 116.160156 147.679688 116.085938 148.398438 116.082031 149.097656 C 116.085938 149.808594 116.164062 150.511719 116.292969 151.222656 C 116.484375 152.292969 116.773438 153.378906 117.105469 154.5 C 117.4375 155.621094 117.808594 156.773438 118.160156 157.933594 L 120.332031 157.277344 L 120.621094 155.035156 C 120.457031 155.015625 120.285156 155 120.105469 155 C 119.714844 155 119.28125 155.0625 118.851562 155.214844 C 118.425781 155.371094 118.015625 155.617188 117.671875 155.917969 L 117.675781 155.914062 C 117.4375 156.121094 117.261719 156.335938 117.128906 156.542969 C 116.890625 156.90625 116.753906 157.242188 116.648438 157.5625 C 116.496094 158.050781 116.417969 158.519531 116.363281 159.019531 C 116.308594 159.515625 116.285156 160.035156 116.285156 160.578125 C 116.285156 161.722656 116.386719 162.980469 116.570312 164.257812 C 116.703125 165.214844 116.890625 166.179688 117.117188 167.109375 C 117.289062 167.804688 117.488281 168.480469 117.71875 169.117188 C 118.066406 170.074219 118.460938 170.949219 119.046875 171.738281 C 119.347656 172.132812 119.703125 172.519531 120.195312 172.847656 C 120.441406 173.011719 120.722656 173.160156 121.042969 173.265625 C 121.363281 173.375 121.722656 173.4375 122.085938 173.433594 C 122.324219 173.4375 122.558594 173.410156 122.78125 173.359375 L 122.300781 171.152344 L 120.039062 171.273438 C 120.082031 172.050781 120.097656 172.816406 120.097656 173.570312 C 120.101562 176.894531 119.722656 179.90625 119.347656 182.070312 C 119.15625 183.152344 118.972656 184.023438 118.832031 184.613281 C 118.761719 184.910156 118.707031 185.136719 118.667969 185.285156 C 118.648438 185.359375 118.632812 185.414062 118.625 185.449219 L 118.613281 185.484375 L 118.613281 185.492188 L 119.234375 185.664062 L 118.613281 185.488281 L 118.613281 185.492188 L 119.234375 185.664062 L 118.613281 185.488281 C 118.324219 186.507812 118.78125 187.585938 119.710938 188.09375 C 119.90625 188.195312 124.898438 190.855469 134.003906 192.070312 L 134.304688 189.832031 L 132.058594 189.519531 C 131.902344 190.636719 131.6875 191.679688 131.402344 192.578125 L 133.5625 193.257812 L 132.734375 191.152344 C 131.59375 191.601562 127.269531 193.34375 122.914062 195.777344 C 120.734375 196.996094 118.546875 198.382812 116.707031 199.933594 C 115.789062 200.710938 114.953125 201.527344 114.25 202.417969 C 113.550781 203.308594 112.972656 204.28125 112.648438 205.386719 C 112.589844 205.589844 112.558594 205.824219 112.558594 206.039062 L 112.765625 230.453125 C 112.769531 230.859375 112.878906 231.253906 113.089844 231.601562 C 113.195312 231.773438 113.628906 232.4375 114.601562 233.335938 C 116.0625 234.683594 118.734375 236.546875 123.261719 238.117188 C 127.796875 239.691406 134.191406 240.984375 143.167969 241.242188 C 144.015625 241.269531 144.84375 241.277344 145.652344 241.277344 C 156.769531 241.28125 164.5625 239.066406 169.613281 236.785156 C 174.660156 234.503906 176.949219 232.171875 177.121094 231.992188 C 177.519531 231.574219 177.742188 231.03125 177.746094 230.453125 L 177.953125 206.039062 C 177.957031 205.847656 177.929688 205.636719 177.882812 205.453125 C 177.550781 204.171875 176.886719 203.046875 176.070312 202.039062 C 175.351562 201.15625 174.507812 200.355469 173.578125 199.601562 C 171.949219 198.28125 170.0625 197.113281 168.125 196.066406 C 165.214844 194.496094 162.183594 193.214844 159.789062 192.289062 C 157.394531 191.367188 155.648438 190.804688 155.316406 190.703125 L 154.636719 192.859375 L 156.824219 192.273438 L 154.636719 192.859375 L 153.953125 195.011719 C 154.390625 195.148438 159.136719 196.675781 163.875 198.972656 C 166.242188 200.117188 168.605469 201.460938 170.386719 202.847656 C 171.28125 203.535156 172.023438 204.234375 172.546875 204.886719 C 173.074219 205.535156 173.375 206.121094 173.492188 206.578125 L 175.6875 206.015625 L 173.421875 206 L 173.210938 230.414062 L 175.480469 230.433594 L 173.835938 228.875 L 174.863281 229.847656 L 173.847656 228.863281 L 173.835938 228.875 L 174.863281 229.847656 L 173.847656 228.863281 L 174.011719 229.023438 L 173.847656 228.863281 L 174.011719 229.023438 L 173.847656 228.863281 C 173.832031 228.878906 171.898438 230.839844 167.425781 232.808594 C 162.949219 234.773438 155.921875 236.757812 145.652344 236.757812 C 144.886719 236.757812 144.101562 236.746094 143.296875 236.722656 C 131.824219 236.398438 125.109375 234.308594 121.355469 232.433594 C 119.476562 231.5 118.332031 230.617188 117.679688 230.015625 C 117.355469 229.714844 117.152344 229.484375 117.042969 229.351562 C 116.988281 229.285156 116.957031 229.242188 116.949219 229.226562 L 116.945312 229.222656 L 116.046875 229.824219 L 116.972656 229.265625 L 116.945312 229.222656 L 116.046875 229.824219 L 116.972656 229.265625 L 115.03125 230.433594 L 117.296875 230.414062 L 117.089844 206 L 114.824219 206.015625 L 117.003906 206.648438 C 117.105469 206.285156 117.367188 205.777344 117.816406 205.207031 C 118.597656 204.207031 119.925781 203.054688 121.5 201.96875 C 123.859375 200.324219 126.757812 198.789062 129.21875 197.617188 C 131.683594 196.441406 133.71875 195.625 134.394531 195.359375 C 135.027344 195.109375 135.523438 194.582031 135.726562 193.9375 C 136.109375 192.722656 136.367188 191.445312 136.550781 190.140625 C 136.632812 189.542969 136.476562 188.941406 136.109375 188.460938 C 135.742188 187.980469 135.207031 187.667969 134.605469 187.589844 C 130.375 187.023438 127.144531 186.132812 124.996094 185.390625 C 123.921875 185.023438 123.117188 184.691406 122.59375 184.457031 C 122.332031 184.339844 122.136719 184.25 122.019531 184.191406 C 121.960938 184.160156 121.914062 184.136719 121.890625 184.125 L 121.867188 184.113281 L 121.199219 185.359375 L 121.875 184.117188 L 121.867188 184.113281 L 121.199219 185.359375 L 121.875 184.117188 L 120.792969 186.105469 L 122.976562 186.71875 C 123.007812 186.597656 124.628906 180.890625 124.632812 173.570312 C 124.632812 172.742188 124.613281 171.894531 124.566406 171.027344 C 124.53125 170.367188 124.207031 169.753906 123.675781 169.355469 C 123.148438 168.953125 122.46875 168.800781 121.820312 168.945312 L 122.085938 170.148438 L 122.085938 168.917969 C 121.988281 168.917969 121.898438 168.925781 121.820312 168.945312 L 122.085938 170.148438 L 122.085938 168.917969 L 122.085938 170.140625 L 122.535156 169 C 122.421875 168.953125 122.257812 168.914062 122.085938 168.917969 L 122.085938 170.140625 L 122.535156 169 L 122.234375 169.765625 L 122.738281 169.109375 C 122.707031 169.085938 122.644531 169.042969 122.535156 169 L 122.234375 169.765625 L 122.738281 169.109375 L 122.59375 169.292969 L 122.753906 169.121094 L 122.738281 169.109375 L 122.59375 169.292969 L 122.753906 169.121094 C 122.75 169.121094 122.667969 169.03125 122.5625 168.859375 C 122.375 168.5625 122.136719 168.039062 121.917969 167.398438 C 121.589844 166.4375 121.304688 165.222656 121.117188 164.003906 C 120.921875 162.785156 120.816406 161.554688 120.816406 160.578125 C 120.816406 159.949219 120.863281 159.417969 120.925781 159.125 C 120.9375 159.050781 120.953125 158.996094 120.964844 158.957031 L 120.976562 158.914062 L 120.714844 158.8125 L 120.96875 158.9375 L 120.976562 158.914062 L 120.714844 158.8125 L 120.96875 158.9375 L 119.847656 158.394531 L 120.660156 159.316406 C 120.878906 159.121094 120.945312 158.980469 120.96875 158.9375 L 119.847656 158.394531 L 120.660156 159.316406 L 120.664062 159.3125 L 120.109375 158.6875 L 120.394531 159.46875 C 120.507812 159.429688 120.613281 159.359375 120.664062 159.3125 L 120.109375 158.6875 L 120.394531 159.46875 L 120.105469 158.671875 L 120.105469 159.519531 C 120.167969 159.519531 120.28125 159.507812 120.394531 159.46875 L 120.105469 158.671875 L 120.105469 159.519531 L 120.105469 159.019531 L 120.039062 159.519531 L 120.105469 159.519531 L 120.105469 159.019531 L 120.039062 159.519531 C 120.808594 159.617188 121.5625 159.324219 122.0625 158.738281 C 122.5625 158.148438 122.726562 157.355469 122.5 156.617188 C 122.011719 155.015625 121.519531 153.515625 121.167969 152.210938 C 120.992188 151.5625 120.851562 150.960938 120.757812 150.433594 C 120.660156 149.902344 120.617188 149.449219 120.617188 149.097656 C 120.617188 148.75 120.660156 148.511719 120.703125 148.382812 L 120.707031 148.382812 C 121.226562 146.796875 122.144531 144.988281 123.347656 143.210938 C 125.144531 140.542969 127.574219 137.933594 130.144531 136.066406 C 131.425781 135.132812 132.738281 134.382812 134.003906 133.878906 C 135.269531 133.371094 136.476562 133.117188 137.574219 133.117188 C 138.585938 133.121094 139.507812 133.324219 140.398438 133.78125 C 140.996094 134.085938 141.710938 134.109375 142.328125 133.847656 C 144.429688 132.953125 146.3125 132.585938 148.035156 132.585938 C 149.960938 132.585938 151.707031 133.042969 153.359375 133.859375 C 155.828125 135.074219 158.074219 137.144531 159.976562 139.628906 C 161.886719 142.105469 163.449219 144.976562 164.613281 147.671875 L 164.613281 147.675781 C 164.652344 147.757812 164.707031 147.9375 164.746094 148.199219 C 164.789062 148.464844 164.8125 148.8125 164.8125 149.21875 C 164.8125 150.113281 164.695312 151.285156 164.511719 152.605469 C 164.324219 153.929688 164.074219 155.40625 163.824219 156.960938 C 163.703125 157.714844 163.976562 158.484375 164.542969 158.996094 C 165.113281 159.507812 165.90625 159.699219 166.644531 159.503906 L 166.523438 159.042969 L 166.523438 159.515625 C 166.59375 159.515625 166.632812 159.503906 166.644531 159.503906 L 166.523438 159.042969 L 166.523438 159.515625 L 166.523438 158.640625 L 166.21875 159.460938 C 166.328125 159.5 166.445312 159.519531 166.523438 159.515625 L 166.523438 158.640625 L 166.21875 159.460938 L 166.492188 158.726562 L 165.972656 159.320312 C 166.015625 159.359375 166.109375 159.421875 166.21875 159.460938 L 166.492188 158.726562 L 165.972656 159.320312 L 165.96875 159.316406 L 166.898438 158.257812 L 165.71875 159.035156 C 165.765625 159.101562 165.839844 159.203125 165.96875 159.316406 L 166.898438 158.257812 L 165.71875 159.035156 L 166.386719 158.59375 L 165.65625 158.921875 C 165.660156 158.9375 165.679688 158.976562 165.71875 159.035156 L 166.386719 158.59375 L 165.65625 158.921875 L 165.8125 158.851562 L 165.652344 158.914062 L 165.65625 158.921875 L 165.8125 158.851562 L 165.652344 158.914062 C 165.660156 158.921875 165.714844 159.128906 165.75 159.421875 C 165.789062 159.722656 165.8125 160.125 165.8125 160.574219 C 165.8125 161.453125 165.730469 162.527344 165.570312 163.613281 C 165.457031 164.433594 165.296875 165.257812 165.105469 166.019531 C 164.96875 166.59375 164.808594 167.128906 164.640625 167.59375 C 164.398438 168.285156 164.113281 168.824219 163.949219 169.027344 C 163.914062 169.078125 163.882812 169.109375 163.875 169.117188 L 164.332031 169.636719 L 164.054688 169.011719 C 163.9375 169.0625 163.886719 169.109375 163.875 169.117188 L 164.332031 169.636719 L 164.054688 169.011719 L 164.542969 170.121094 L 164.542969 168.914062 C 164.351562 168.914062 164.171875 168.960938 164.054688 169.011719 L 164.542969 170.121094 L 164.542969 168.914062 L 164.542969 170.183594 L 164.683594 168.921875 C 164.636719 168.917969 164.589844 168.914062 164.542969 168.914062 L 164.542969 170.183594 L 164.683594 168.921875 C 164.066406 168.851562 163.441406 169.042969 162.964844 169.445312 C 162.492188 169.847656 162.199219 170.433594 162.167969 171.054688 C 162.136719 171.660156 162.125 172.261719 162.125 172.859375 C 162.125 176.5625 162.660156 180.011719 163.191406 182.558594 C 163.722656 185.101562 164.253906 186.742188 164.273438 186.800781 L 166.429688 186.105469 L 165.4375 184.070312 L 165.96875 185.164062 L 165.441406 184.070312 L 165.4375 184.070312 L 165.96875 185.164062 L 165.441406 184.070312 C 165.441406 184.070312 165.378906 184.101562 165.25 184.15625 C 164.324219 184.566406 160.195312 186.285156 153.644531 187.328125 C 152.433594 187.519531 151.59375 188.640625 151.753906 189.851562 C 151.914062 191.085938 152.136719 192.296875 152.445312 193.441406 C 152.644531 194.1875 153.214844 194.78125 153.953125 195.011719 L 154.636719 192.859375 "/>
</g>
<path style=" stroke:none;fill-rule:nonzero;fill:rgb(100%,100%,100%);fill-opacity:1;" d="M 254.894531 206.230469 C 253.375 200.34375 238.003906 195.132812 232.53125 193.449219 L 231.652344 187.332031 C 236.472656 183.382812 239.953125 177.621094 239.953125 173.226562 C 239.953125 172.667969 239.96875 171.933594 239.992188 171.078125 C 240.089844 171.109375 240.183594 171.152344 240.285156 171.175781 C 243.261719 172 245.117188 159.085938 243.472656 157.648438 C 242.464844 156.773438 241.148438 157.660156 240.28125 158.484375 C 240.273438 153.632812 240.019531 149.042969 239.128906 146.992188 C 235.324219 138.191406 228.441406 133.257812 217.542969 133.257812 C 208.085938 133.257812 202.167969 139.816406 199.449219 148.015625 C 198.691406 150.292969 198.59375 154.4375 198.71875 158.835938 C 197.894531 157.960938 196.332031 156.640625 195.175781 157.648438 C 193.53125 159.085938 195.386719 172 198.363281 171.175781 C 198.722656 171.082031 199.046875 170.933594 199.34375 170.761719 C 199.402344 171.964844 199.449219 173.03125 199.449219 173.84375 C 199.449219 177.136719 203.367188 182.671875 208.511719 186.746094 L 207.464844 194.03125 C 202.085938 196.027344 189.320312 201.234375 187.867188 206.230469 L 181.902344 231.359375 C 181.902344 231.359375 190.980469 239.019531 220.898438 239.019531 C 250.816406 239.019531 260.035156 231.359375 260.035156 231.359375 L 254.894531 206.230469 "/>
<g clip-path="url(#clip2)" clip-rule="nonzero">
<path style=" stroke:none;fill-rule:nonzero;fill:rgb(13.729858%,12.159729%,12.548828%);fill-opacity:1;" d="M 254.894531 206.230469 L 257.089844 205.667969 C 256.792969 204.523438 256.207031 203.527344 255.484375 202.636719 C 254.851562 201.859375 254.101562 201.152344 253.277344 200.484375 C 251.828125 199.316406 250.132812 198.269531 248.320312 197.304688 C 245.609375 195.859375 242.636719 194.609375 239.933594 193.589844 C 237.230469 192.570312 234.804688 191.78125 233.195312 191.289062 L 232.53125 193.449219 L 234.773438 193.128906 L 233.898438 187.015625 L 231.652344 187.332031 L 233.09375 189.078125 C 235.710938 186.929688 237.945312 184.324219 239.5625 181.597656 C 240.371094 180.234375 241.027344 178.835938 241.488281 177.433594 C 241.949219 176.03125 242.21875 174.625 242.222656 173.226562 C 242.222656 172.707031 242.234375 171.988281 242.261719 171.136719 L 239.992188 171.078125 L 239.234375 173.207031 L 239.292969 173.039062 L 239.234375 173.207031 L 239.292969 173.039062 L 239.234375 173.207031 C 239.238281 173.203125 239.398438 173.28125 239.71875 173.367188 L 240.285156 171.175781 L 239.683594 173.355469 C 239.960938 173.433594 240.261719 173.476562 240.554688 173.476562 C 240.988281 173.476562 241.410156 173.386719 241.773438 173.242188 C 242.113281 173.109375 242.40625 172.929688 242.65625 172.738281 C 243.128906 172.375 243.464844 171.96875 243.753906 171.550781 C 244.253906 170.816406 244.613281 170.011719 244.929688 169.136719 C 245.394531 167.824219 245.738281 166.355469 245.980469 164.882812 C 246.21875 163.40625 246.351562 161.933594 246.355469 160.613281 C 246.351562 159.78125 246.304688 159.015625 246.164062 158.285156 C 246.089844 157.917969 245.996094 157.558594 245.832031 157.175781 C 245.75 156.984375 245.648438 156.785156 245.511719 156.578125 C 245.378906 156.375 245.203125 156.15625 244.96875 155.949219 L 244.964844 155.945312 C 244.625 155.652344 244.226562 155.40625 243.800781 155.253906 C 243.375 155.09375 242.933594 155.027344 242.527344 155.027344 C 242.03125 155.027344 241.589844 155.121094 241.207031 155.25 C 240.625 155.445312 240.164062 155.714844 239.757812 155.992188 C 239.355469 156.273438 239.011719 156.566406 238.71875 156.847656 L 240.28125 158.484375 L 242.546875 158.480469 C 242.542969 156.015625 242.480469 153.605469 242.292969 151.492188 C 242.203125 150.433594 242.082031 149.453125 241.914062 148.554688 C 241.742188 147.65625 241.535156 146.851562 241.210938 146.09375 L 241.214844 146.097656 C 240.191406 143.738281 238.949219 141.605469 237.460938 139.730469 C 235.226562 136.914062 232.421875 134.695312 229.078125 133.21875 C 225.734375 131.738281 221.882812 130.996094 217.542969 130.996094 C 214.917969 130.996094 212.484375 131.457031 210.289062 132.304688 C 206.996094 133.570312 204.265625 135.699219 202.121094 138.3125 C 199.972656 140.921875 198.390625 144.015625 197.296875 147.308594 C 196.917969 148.457031 196.71875 149.742188 196.585938 151.183594 C 196.457031 152.621094 196.40625 154.207031 196.40625 155.867188 C 196.40625 156.855469 196.421875 157.875 196.453125 158.902344 L 198.71875 158.835938 L 200.371094 157.285156 C 199.988281 156.878906 199.480469 156.394531 198.820312 155.945312 C 198.488281 155.722656 198.117188 155.507812 197.675781 155.332031 C 197.234375 155.164062 196.71875 155.027344 196.121094 155.027344 C 195.714844 155.027344 195.273438 155.09375 194.847656 155.253906 C 194.421875 155.410156 194.019531 155.652344 193.679688 155.949219 L 193.683594 155.949219 C 193.445312 156.15625 193.273438 156.371094 193.136719 156.578125 C 192.898438 156.941406 192.765625 157.273438 192.660156 157.597656 C 192.507812 158.082031 192.425781 158.554688 192.371094 159.054688 C 192.316406 159.550781 192.292969 160.070312 192.292969 160.613281 C 192.292969 161.757812 192.394531 163.015625 192.578125 164.292969 C 192.714844 165.25 192.898438 166.21875 193.128906 167.144531 C 193.300781 167.839844 193.5 168.515625 193.726562 169.152344 C 194.074219 170.113281 194.46875 170.988281 195.058594 171.78125 C 195.355469 172.175781 195.710938 172.558594 196.203125 172.886719 C 196.449219 173.050781 196.730469 173.199219 197.050781 173.304688 C 197.371094 173.414062 197.730469 173.476562 198.09375 173.476562 C 198.390625 173.476562 198.6875 173.433594 198.957031 173.359375 C 199.539062 173.203125 200.046875 172.96875 200.480469 172.71875 L 199.34375 170.761719 L 197.078125 170.878906 C 197.140625 172.066406 197.179688 173.109375 197.179688 173.84375 C 197.1875 175.113281 197.535156 176.328125 198.054688 177.5625 C 198.847656 179.40625 200.085938 181.304688 201.632812 183.179688 C 203.183594 185.050781 205.042969 186.886719 207.101562 188.515625 L 208.511719 186.746094 L 206.269531 186.425781 L 205.222656 193.710938 L 207.464844 194.03125 L 206.675781 191.914062 C 203.925781 192.933594 199.324219 194.753906 195.117188 197.015625 C 193.011719 198.152344 191.003906 199.386719 189.34375 200.753906 C 188.511719 201.4375 187.761719 202.15625 187.132812 202.945312 C 186.503906 203.734375 185.984375 204.601562 185.6875 205.601562 L 185.660156 205.710938 L 179.695312 230.839844 C 179.5 231.667969 179.785156 232.535156 180.4375 233.085938 C 180.671875 233.285156 183.222656 235.347656 189.492188 237.339844 C 195.761719 239.339844 205.746094 241.277344 220.898438 241.277344 C 236.050781 241.277344 246.070312 239.339844 252.371094 237.34375 C 258.675781 235.347656 261.253906 233.289062 261.488281 233.09375 C 262.125 232.5625 262.421875 231.71875 262.257812 230.90625 L 257.117188 205.78125 L 257.089844 205.667969 L 254.894531 206.230469 L 252.671875 206.683594 L 257.816406 231.8125 L 260.035156 231.359375 L 258.582031 229.621094 L 259.585938 230.820312 L 258.597656 229.609375 L 258.582031 229.621094 L 259.585938 230.820312 L 258.597656 229.609375 L 258.917969 230 L 258.601562 229.609375 L 258.597656 229.609375 L 258.917969 230 L 258.601562 229.609375 L 258.578125 229.625 C 258.320312 229.820312 255.894531 231.59375 250.03125 233.332031 C 244.171875 235.066406 234.867188 236.757812 220.898438 236.757812 C 206.132812 236.757812 196.617188 234.867188 190.871094 233.035156 C 187.996094 232.121094 186.0625 231.21875 184.875 230.570312 C 184.28125 230.25 183.875 229.988281 183.632812 229.824219 C 183.511719 229.738281 183.429688 229.679688 183.386719 229.648438 L 183.351562 229.617188 L 183.347656 229.617188 L 182.566406 230.578125 L 183.367188 229.632812 L 183.347656 229.617188 L 182.566406 230.578125 L 183.367188 229.632812 L 181.902344 231.359375 L 184.109375 231.878906 L 190.074219 206.75 L 187.867188 206.230469 L 190.042969 206.863281 C 190.113281 206.613281 190.308594 206.222656 190.679688 205.761719 C 191.320312 204.949219 192.464844 203.96875 193.886719 203.011719 C 196.019531 201.570312 198.761719 200.160156 201.386719 198.964844 C 204.011719 197.773438 206.527344 196.789062 208.257812 196.148438 C 209.035156 195.859375 209.59375 195.171875 209.710938 194.351562 L 210.757812 187.066406 C 210.871094 186.273438 210.550781 185.472656 209.921875 184.976562 C 207.519531 183.078125 205.382812 180.804688 203.90625 178.703125 C 203.167969 177.65625 202.59375 176.648438 202.226562 175.789062 C 201.855469 174.929688 201.710938 174.21875 201.714844 173.84375 C 201.714844 172.953125 201.667969 171.867188 201.605469 170.648438 C 201.566406 169.863281 201.113281 169.148438 200.421875 168.773438 C 199.730469 168.402344 198.882812 168.414062 198.203125 168.808594 C 198.042969 168.902344 197.90625 168.960938 197.769531 168.996094 L 198.09375 170.179688 L 198.09375 168.953125 C 197.972656 168.953125 197.859375 168.972656 197.769531 168.996094 L 198.09375 170.179688 L 198.09375 168.953125 L 198.09375 170.179688 L 198.546875 169.039062 C 198.433594 168.992188 198.265625 168.953125 198.09375 168.953125 L 198.09375 170.179688 L 198.546875 169.039062 L 198.242188 169.804688 L 198.746094 169.148438 C 198.71875 169.125 198.652344 169.082031 198.546875 169.039062 L 198.242188 169.804688 L 198.746094 169.148438 L 198.601562 169.332031 L 198.765625 169.164062 L 198.746094 169.148438 L 198.601562 169.332031 L 198.765625 169.164062 C 198.761719 169.164062 198.675781 169.070312 198.570312 168.898438 C 198.382812 168.601562 198.144531 168.074219 197.925781 167.4375 C 197.601562 166.476562 197.316406 165.257812 197.125 164.039062 C 196.929688 162.820312 196.824219 161.59375 196.828125 160.613281 C 196.824219 159.984375 196.875 159.449219 196.933594 159.15625 C 196.949219 159.085938 196.960938 159.03125 196.972656 158.992188 L 196.988281 158.949219 L 196.722656 158.847656 L 196.976562 158.96875 L 196.988281 158.949219 L 196.722656 158.847656 L 196.976562 158.96875 L 195.859375 158.425781 L 196.667969 159.351562 C 196.890625 159.152344 196.953125 159.015625 196.976562 158.96875 L 195.859375 158.425781 L 196.667969 159.351562 L 196.671875 159.347656 L 196.152344 158.761719 L 196.425781 159.492188 C 196.535156 159.449219 196.628906 159.386719 196.671875 159.347656 L 196.152344 158.761719 L 196.425781 159.492188 L 196.121094 158.675781 L 196.121094 159.546875 C 196.199219 159.546875 196.316406 159.53125 196.425781 159.492188 L 196.121094 158.675781 L 196.121094 159.546875 L 196.121094 159.011719 L 196.007812 159.535156 C 196.027344 159.539062 196.0625 159.546875 196.121094 159.546875 L 196.121094 159.011719 L 196.007812 159.535156 L 196.007812 159.539062 C 196.058594 159.550781 196.253906 159.65625 196.460938 159.820312 C 196.667969 159.984375 196.890625 160.195312 197.070312 160.382812 C 197.71875 161.070312 198.714844 161.28125 199.585938 160.921875 C 200.460938 160.5625 201.011719 159.710938 200.984375 158.769531 C 200.957031 157.777344 200.941406 156.800781 200.941406 155.867188 C 200.9375 154.296875 200.988281 152.832031 201.101562 151.589844 C 201.210938 150.355469 201.394531 149.332031 201.601562 148.726562 C 202.863281 144.914062 204.847656 141.578125 207.476562 139.25 C 208.792969 138.082031 210.265625 137.160156 211.925781 136.519531 C 213.585938 135.878906 215.441406 135.519531 217.542969 135.519531 C 220.097656 135.519531 222.367188 135.808594 224.386719 136.347656 C 227.421875 137.164062 229.886719 138.53125 231.960938 140.4375 C 234.035156 142.347656 235.722656 144.820312 237.050781 147.886719 C 237.167969 148.15625 237.328125 148.695312 237.457031 149.386719 C 237.652344 150.425781 237.796875 151.820312 237.886719 153.382812 C 237.972656 154.949219 238.011719 156.695312 238.015625 158.488281 C 238.015625 159.386719 238.558594 160.207031 239.390625 160.5625 C 240.21875 160.914062 241.191406 160.742188 241.84375 160.121094 C 242.066406 159.910156 242.316406 159.710938 242.488281 159.613281 C 242.570312 159.5625 242.632812 159.539062 242.644531 159.535156 L 242.527344 159.070312 L 242.527344 159.546875 C 242.597656 159.546875 242.640625 159.539062 242.644531 159.535156 L 242.527344 159.070312 L 242.527344 159.546875 L 242.527344 158.679688 L 242.222656 159.492188 C 242.332031 159.53125 242.449219 159.546875 242.527344 159.546875 L 242.527344 158.679688 L 242.222656 159.492188 L 242.492188 158.769531 L 241.980469 159.351562 C 242.023438 159.390625 242.117188 159.453125 242.222656 159.492188 L 242.492188 158.769531 L 241.980469 159.351562 L 241.980469 159.347656 L 242.910156 158.292969 L 241.726562 159.066406 C 241.773438 159.132812 241.847656 159.234375 241.980469 159.347656 L 242.910156 158.292969 L 241.726562 159.066406 L 242.394531 158.628906 L 241.664062 158.957031 C 241.671875 158.972656 241.6875 159.007812 241.726562 159.066406 L 242.394531 158.628906 L 241.664062 158.957031 L 241.820312 158.886719 L 241.660156 158.949219 L 241.664062 158.957031 L 241.820312 158.886719 L 241.660156 158.949219 C 241.667969 158.957031 241.726562 159.160156 241.761719 159.460938 C 241.796875 159.761719 241.820312 160.15625 241.820312 160.613281 C 241.820312 161.488281 241.738281 162.5625 241.582031 163.652344 C 241.464844 164.46875 241.308594 165.296875 241.117188 166.058594 C 240.976562 166.632812 240.816406 167.167969 240.652344 167.632812 C 240.40625 168.328125 240.121094 168.867188 239.960938 169.070312 C 239.921875 169.121094 239.894531 169.152344 239.886719 169.160156 L 240.34375 169.683594 L 240.066406 169.054688 C 239.949219 169.105469 239.894531 169.152344 239.886719 169.160156 L 240.34375 169.683594 L 240.066406 169.054688 L 240.554688 170.167969 L 240.554688 168.957031 C 240.367188 168.953125 240.183594 169 240.066406 169.054688 L 240.554688 170.167969 L 240.554688 168.957031 L 240.554688 170.195312 L 240.886719 169 C 240.792969 168.972656 240.675781 168.953125 240.554688 168.957031 L 240.554688 170.195312 L 240.886719 169 L 240.851562 168.992188 L 240.574219 170.0625 L 240.921875 169.011719 L 240.851562 168.992188 L 240.574219 170.0625 L 240.921875 169.011719 L 240.785156 169.421875 L 240.9375 169.015625 L 240.921875 169.011719 L 240.785156 169.421875 L 240.9375 169.015625 C 240.933594 169.015625 240.871094 168.988281 240.753906 168.945312 C 240.066406 168.703125 239.3125 168.800781 238.710938 169.210938 C 238.113281 169.621094 237.746094 170.289062 237.726562 171.015625 C 237.703125 171.878906 237.6875 172.621094 237.6875 173.226562 C 237.6875 174.027344 237.523438 174.988281 237.179688 176.023438 C 236.667969 177.582031 235.761719 179.308594 234.558594 180.96875 C 233.355469 182.632812 231.863281 184.234375 230.210938 185.589844 C 229.601562 186.085938 229.296875 186.875 229.410156 187.652344 L 230.285156 193.769531 C 230.410156 194.628906 231.023438 195.351562 231.859375 195.609375 C 234.539062 196.429688 239.675781 198.132812 244.21875 200.304688 C 246.484375 201.382812 248.601562 202.585938 250.140625 203.773438 C 250.910156 204.367188 251.535156 204.957031 251.960938 205.484375 C 252.394531 206.015625 252.617188 206.46875 252.699219 206.792969 L 254.894531 206.230469 L 252.671875 206.683594 L 254.894531 206.230469 "/>
</g>
<path style=" stroke:none;fill-rule:nonzero;fill:rgb(100%,100%,100%);fill-opacity:1;" d="M 224.070312 210.273438 C 222.410156 203.851562 205.636719 198.160156 199.660156 196.324219 L 198.703125 189.652344 C 203.964844 185.339844 207.765625 179.050781 207.765625 174.257812 C 207.765625 173.644531 207.78125 172.839844 207.808594 171.910156 C 207.914062 171.945312 208.011719 171.988281 208.121094 172.019531 C 211.375 172.914062 213.398438 158.824219 211.601562 157.253906 C 210.503906 156.296875 209.070312 157.265625 208.121094 158.164062 C 208.109375 152.871094 207.835938 147.863281 206.863281 145.621094 C 202.707031 136.015625 195.199219 130.632812 183.304688 130.632812 C 172.984375 130.632812 166.523438 137.792969 163.554688 146.742188 C 162.734375 149.226562 162.621094 153.746094 162.761719 158.550781 C 161.859375 157.59375 160.15625 156.15625 158.894531 157.253906 C 157.097656 158.824219 159.121094 172.914062 162.375 172.019531 C 162.761719 171.910156 163.117188 171.757812 163.441406 171.566406 C 163.507812 172.882812 163.554688 174.042969 163.554688 174.929688 C 163.554688 178.519531 167.832031 184.5625 173.449219 189.011719 L 172.304688 196.960938 C 166.433594 199.136719 152.503906 204.816406 150.914062 210.273438 L 144.410156 237.703125 C 144.410156 237.703125 154.316406 246.0625 186.964844 246.0625 C 219.617188 246.0625 229.679688 237.703125 229.679688 237.703125 L 224.070312 210.273438 "/>
<g clip-path="url(#clip3)" clip-rule="nonzero">
<path style=" stroke:none;fill-rule:nonzero;fill:rgb(13.729858%,12.159729%,12.548828%);fill-opacity:1;" d="M 224.070312 210.273438 L 226.265625 209.710938 C 225.949219 208.5 225.328125 207.4375 224.550781 206.484375 C 223.871094 205.648438 223.066406 204.886719 222.171875 204.164062 C 220.609375 202.902344 218.765625 201.765625 216.796875 200.714844 C 213.847656 199.148438 210.613281 197.785156 207.667969 196.671875 C 204.726562 195.558594 202.078125 194.703125 200.328125 194.164062 L 199.660156 196.324219 L 201.90625 196.003906 L 200.945312 189.332031 L 198.703125 189.652344 L 200.144531 191.398438 C 202.980469 189.066406 205.40625 186.238281 207.160156 183.285156 C 208.035156 181.808594 208.742188 180.296875 209.242188 178.785156 C 209.738281 177.269531 210.03125 175.753906 210.03125 174.257812 C 210.03125 173.679688 210.046875 172.894531 210.074219 171.984375 L 207.808594 171.910156 L 207.050781 174.039062 C 207.0625 174.039062 207.214844 174.109375 207.511719 174.195312 L 207.519531 174.199219 C 207.808594 174.277344 208.113281 174.320312 208.417969 174.320312 C 208.859375 174.320312 209.292969 174.230469 209.667969 174.082031 C 210.019531 173.941406 210.324219 173.757812 210.585938 173.558594 C 211.074219 173.183594 211.433594 172.753906 211.738281 172.308594 C 212.269531 171.53125 212.65625 170.664062 212.996094 169.722656 C 213.5 168.308594 213.875 166.71875 214.136719 165.117188 C 214.394531 163.515625 214.539062 161.917969 214.539062 160.488281 C 214.539062 159.59375 214.488281 158.765625 214.335938 157.988281 C 214.257812 157.597656 214.15625 157.21875 213.988281 156.820312 C 213.902344 156.617188 213.796875 156.414062 213.65625 156.199219 C 213.515625 155.988281 213.335938 155.765625 213.09375 155.554688 C 212.742188 155.246094 212.328125 154.996094 211.890625 154.832031 C 211.449219 154.667969 210.992188 154.597656 210.570312 154.597656 C 210.058594 154.597656 209.597656 154.695312 209.195312 154.832031 C 208.589844 155.035156 208.097656 155.320312 207.667969 155.613281 C 207.242188 155.914062 206.875 156.226562 206.558594 156.523438 L 208.121094 158.164062 L 210.390625 158.15625 C 210.382812 155.472656 210.308594 152.847656 210.109375 150.554688 C 210.011719 149.402344 209.878906 148.335938 209.695312 147.367188 C 209.515625 146.398438 209.292969 145.53125 208.949219 144.726562 C 207.839844 142.167969 206.492188 139.855469 204.878906 137.824219 C 202.460938 134.777344 199.425781 132.375 195.808594 130.777344 C 192.191406 129.175781 188.015625 128.375 183.304688 128.375 C 180.460938 128.371094 177.832031 128.867188 175.464844 129.785156 C 171.90625 131.152344 168.957031 133.453125 166.632812 136.277344 C 164.308594 139.105469 162.589844 142.457031 161.402344 146.03125 C 161 147.265625 160.78125 148.65625 160.636719 150.222656 C 160.496094 151.785156 160.441406 153.507812 160.441406 155.320312 C 160.441406 156.394531 160.460938 157.5 160.496094 158.613281 L 162.761719 158.550781 L 164.410156 157 C 164 156.566406 163.457031 156.042969 162.757812 155.566406 C 162.40625 155.332031 162.007812 155.101562 161.546875 154.917969 C 161.085938 154.738281 160.546875 154.597656 159.925781 154.597656 C 159.503906 154.597656 159.046875 154.667969 158.609375 154.832031 C 158.167969 154.992188 157.75 155.246094 157.398438 155.554688 C 157.15625 155.765625 156.980469 155.988281 156.839844 156.199219 C 156.59375 156.574219 156.453125 156.921875 156.34375 157.261719 C 156.183594 157.773438 156.097656 158.273438 156.035156 158.808594 C 155.980469 159.339844 155.957031 159.902344 155.957031 160.488281 C 155.957031 161.726562 156.0625 163.089844 156.261719 164.476562 C 156.410156 165.515625 156.609375 166.5625 156.859375 167.566406 C 157.046875 168.320312 157.257812 169.050781 157.507812 169.742188 C 157.882812 170.777344 158.308594 171.714844 158.929688 172.550781 C 159.246094 172.96875 159.617188 173.371094 160.128906 173.714844 C 160.382812 173.882812 160.679688 174.035156 161.007812 174.144531 C 161.335938 174.257812 161.703125 174.320312 162.078125 174.320312 C 162.382812 174.320312 162.6875 174.277344 162.96875 174.203125 L 162.984375 174.195312 C 163.566406 174.035156 164.109375 173.796875 164.59375 173.507812 L 163.441406 171.566406 L 161.175781 171.683594 C 161.242188 172.984375 161.289062 174.121094 161.289062 174.929688 C 161.292969 176.273438 161.660156 177.578125 162.226562 178.90625 C 163.082031 180.894531 164.421875 182.953125 166.101562 184.984375 C 167.78125 187.015625 169.800781 189.007812 172.039062 190.78125 L 173.449219 189.011719 L 171.203125 188.691406 L 170.0625 196.640625 L 172.304688 196.960938 L 171.515625 194.84375 C 168.523438 195.953125 163.503906 197.941406 158.925781 200.398438 C 156.636719 201.632812 154.457031 202.980469 152.660156 204.457031 C 151.757812 205.199219 150.953125 205.972656 150.277344 206.820312 C 149.601562 207.664062 149.046875 208.585938 148.738281 209.644531 L 148.707031 209.753906 L 142.203125 237.183594 C 142.003906 238.011719 142.289062 238.878906 142.941406 239.425781 C 143.175781 239.628906 145.933594 241.863281 152.753906 244.035156 C 159.570312 246.207031 170.445312 248.320312 186.964844 248.320312 C 203.484375 248.320312 214.398438 246.207031 221.253906 244.035156 C 228.109375 241.867188 230.898438 239.632812 231.128906 239.4375 C 231.769531 238.90625 232.066406 238.0625 231.898438 237.25 L 226.292969 209.824219 L 226.265625 209.710938 L 224.070312 210.273438 L 221.847656 210.726562 L 227.457031 238.152344 L 229.679688 237.703125 L 228.226562 235.964844 L 229.183594 237.109375 L 228.242188 235.953125 L 228.226562 235.964844 L 229.183594 237.109375 L 228.242188 235.953125 C 228.164062 236.015625 225.667969 237.964844 219.277344 239.914062 C 212.886719 241.859375 202.597656 243.800781 186.964844 243.800781 C 170.832031 243.800781 160.429688 241.738281 154.132812 239.730469 C 150.984375 238.726562 148.859375 237.738281 147.550781 237.023438 C 146.898438 236.667969 146.449219 236.382812 146.175781 236.199219 C 146.042969 236.105469 145.949219 236.035156 145.902344 236 L 145.855469 235.964844 L 145.839844 235.984375 L 145.855469 235.964844 L 145.839844 235.984375 L 145.855469 235.964844 L 144.890625 237.132812 L 145.871094 235.976562 L 145.855469 235.964844 L 144.890625 237.132812 L 145.871094 235.976562 L 144.410156 237.703125 L 146.613281 238.222656 L 153.121094 210.792969 L 150.914062 210.273438 L 153.09375 210.90625 C 153.179688 210.597656 153.40625 210.152344 153.824219 209.632812 C 154.542969 208.722656 155.808594 207.640625 157.371094 206.59375 C 159.714844 205.007812 162.714844 203.464844 165.585938 202.160156 C 168.457031 200.855469 171.203125 199.78125 173.097656 199.082031 C 173.875 198.792969 174.433594 198.101562 174.550781 197.28125 L 175.691406 189.332031 C 175.804688 188.539062 175.488281 187.738281 174.855469 187.238281 C 172.222656 185.15625 169.875 182.664062 168.25 180.351562 C 167.4375 179.199219 166.804688 178.085938 166.398438 177.132812 C 165.984375 176.179688 165.816406 175.382812 165.820312 174.929688 C 165.820312 173.964844 165.773438 172.78125 165.703125 171.445312 C 165.660156 170.65625 165.210938 169.949219 164.511719 169.574219 C 163.808594 169.199219 162.964844 169.214844 162.285156 169.621094 C 162.121094 169.714844 161.953125 169.789062 161.765625 169.84375 L 161.777344 169.839844 L 162.078125 170.929688 L 162.078125 169.800781 C 161.96875 169.800781 161.859375 169.816406 161.777344 169.839844 L 162.078125 170.929688 L 162.078125 169.800781 L 162.078125 170.929688 L 162.496094 169.875 C 162.390625 169.835938 162.238281 169.800781 162.078125 169.800781 L 162.078125 170.929688 L 162.496094 169.875 L 162.238281 170.519531 L 162.664062 169.96875 C 162.648438 169.953125 162.59375 169.914062 162.496094 169.875 L 162.238281 170.519531 L 162.664062 169.96875 L 162.558594 170.105469 L 162.671875 169.972656 L 162.664062 169.96875 L 162.558594 170.105469 L 162.671875 169.972656 L 162.65625 169.957031 C 162.617188 169.917969 162.507812 169.785156 162.382812 169.574219 C 162.164062 169.203125 161.902344 168.609375 161.667969 167.902344 C 161.3125 166.839844 161.011719 165.515625 160.804688 164.195312 C 160.597656 162.878906 160.488281 161.554688 160.488281 160.488281 C 160.488281 159.792969 160.539062 159.203125 160.609375 158.859375 C 160.625 158.777344 160.640625 158.710938 160.65625 158.664062 L 160.675781 158.597656 L 160.679688 158.59375 L 159.699219 158.171875 L 160.386719 158.957031 C 160.632812 158.734375 160.671875 158.597656 160.679688 158.59375 L 159.699219 158.171875 L 160.386719 158.957031 L 159.960938 158.46875 L 160.183594 159.070312 C 160.277344 159.035156 160.355469 158.980469 160.386719 158.957031 L 159.960938 158.46875 L 160.183594 159.070312 L 159.925781 158.378906 L 159.925781 159.121094 C 159.988281 159.121094 160.089844 159.105469 160.183594 159.070312 L 159.925781 158.378906 L 159.925781 159.121094 L 159.925781 158.742188 L 159.847656 159.113281 C 159.851562 159.113281 159.878906 159.121094 159.925781 159.121094 L 159.925781 158.742188 L 159.847656 159.113281 L 159.851562 159.085938 L 159.84375 159.113281 L 159.847656 159.113281 L 159.851562 159.085938 L 159.84375 159.113281 C 159.855469 159.105469 160.09375 159.207031 160.347656 159.402344 C 160.605469 159.59375 160.886719 159.863281 161.109375 160.101562 C 161.757812 160.785156 162.753906 160.996094 163.628906 160.636719 C 164.5 160.277344 165.054688 159.425781 165.023438 158.484375 C 164.996094 157.402344 164.976562 156.339844 164.976562 155.320312 C 164.976562 153.597656 165.027344 151.992188 165.152344 150.628906 C 165.273438 149.265625 165.476562 148.136719 165.710938 147.449219 L 165.707031 147.449219 C 167.09375 143.261719 169.277344 139.589844 172.179688 137.019531 C 173.632812 135.730469 175.261719 134.707031 177.097656 134 C 178.9375 133.292969 180.984375 132.894531 183.304688 132.894531 C 186.105469 132.894531 188.605469 133.210938 190.828125 133.808594 C 194.167969 134.707031 196.890625 136.214844 199.179688 138.316406 C 201.46875 140.421875 203.324219 143.148438 204.785156 146.515625 C 204.921875 146.832031 205.097656 147.433594 205.242188 148.195312 C 205.457031 149.347656 205.613281 150.875 205.710938 152.589844 C 205.808594 154.304688 205.851562 156.210938 205.855469 158.167969 C 205.859375 159.066406 206.402344 159.886719 207.230469 160.238281 C 208.0625 160.59375 209.03125 160.421875 209.683594 159.800781 C 209.933594 159.5625 210.21875 159.339844 210.421875 159.21875 C 210.523438 159.160156 210.605469 159.125 210.636719 159.117188 L 210.648438 159.113281 L 210.613281 158.972656 L 210.632812 159.113281 L 210.648438 159.113281 L 210.613281 158.972656 L 210.632812 159.113281 L 210.570312 158.648438 L 210.570312 159.117188 L 210.632812 159.113281 L 210.570312 158.648438 L 210.570312 159.117188 L 210.570312 158.371094 L 210.308594 159.070312 C 210.40625 159.105469 210.507812 159.121094 210.570312 159.117188 L 210.570312 158.371094 L 210.308594 159.070312 L 210.535156 158.472656 L 210.105469 158.957031 C 210.136719 158.980469 210.214844 159.035156 210.308594 159.070312 L 210.535156 158.472656 L 210.105469 158.957031 L 210.109375 158.957031 L 210.988281 157.953125 L 209.871094 158.6875 C 209.914062 158.75 209.980469 158.847656 210.109375 158.957031 L 210.988281 157.953125 L 209.871094 158.6875 L 210.425781 158.324219 L 209.820312 158.597656 C 209.824219 158.605469 209.835938 158.636719 209.871094 158.6875 L 210.425781 158.324219 L 209.820312 158.597656 L 209.90625 158.558594 L 209.816406 158.59375 L 209.820312 158.597656 L 209.90625 158.558594 L 209.816406 158.59375 C 209.824219 158.597656 209.898438 158.832031 209.9375 159.171875 C 209.980469 159.515625 210.003906 159.972656 210.003906 160.488281 C 210.007812 161.457031 209.917969 162.640625 209.746094 163.839844 C 209.617188 164.734375 209.441406 165.644531 209.234375 166.484375 C 209.078125 167.113281 208.902344 167.707031 208.71875 168.21875 C 208.445312 168.992188 208.132812 169.59375 207.933594 169.84375 C 207.886719 169.90625 207.851562 169.945312 207.832031 169.964844 L 207.824219 169.972656 L 208.015625 170.191406 L 207.855469 169.949219 L 207.824219 169.972656 L 208.015625 170.191406 L 207.855469 169.949219 L 208.320312 170.65625 L 208.058594 169.855469 C 207.957031 169.890625 207.890625 169.925781 207.855469 169.949219 L 208.320312 170.65625 L 208.058594 169.855469 L 208.417969 170.953125 L 208.417969 169.800781 C 208.285156 169.800781 208.15625 169.824219 208.058594 169.855469 L 208.417969 170.953125 L 208.417969 169.800781 L 208.417969 170.953125 L 208.726562 169.839844 C 208.636719 169.816406 208.527344 169.800781 208.417969 169.800781 L 208.417969 170.953125 L 208.726562 169.839844 L 208.730469 169.84375 L 208.550781 170.492188 L 208.765625 169.851562 L 208.730469 169.84375 L 208.550781 170.492188 L 208.765625 169.851562 L 208.746094 169.914062 L 208.769531 169.851562 L 208.765625 169.851562 L 208.746094 169.914062 L 208.769531 169.851562 C 208.761719 169.851562 208.699219 169.828125 208.566406 169.777344 C 207.886719 169.539062 207.125 169.636719 206.53125 170.042969 C 205.9375 170.445312 205.566406 171.121094 205.542969 171.835938 C 205.511719 172.789062 205.496094 173.609375 205.496094 174.257812 C 205.5 175.160156 205.3125 176.222656 204.933594 177.375 C 204.367188 179.097656 203.367188 181 202.042969 182.828125 C 200.722656 184.660156 199.078125 186.417969 197.261719 187.90625 C 196.648438 188.410156 196.34375 189.1875 196.457031 189.972656 L 197.414062 196.644531 C 197.539062 197.507812 198.15625 198.226562 198.992188 198.484375 C 201.917969 199.382812 207.535156 201.246094 212.507812 203.617188 C 214.988281 204.800781 217.3125 206.117188 219.011719 207.433594 C 219.859375 208.085938 220.550781 208.738281 221.03125 209.328125 C 221.515625 209.925781 221.777344 210.445312 221.875 210.839844 L 224.070312 210.273438 L 221.847656 210.726562 L 224.070312 210.273438 "/>
</g>
</g>
</svg>
