<?xml version="1.0" encoding="UTF-8"?>
<svg xmlns="http://www.w3.org/2000/svg" xmlns:xlink="http://www.w3.org/1999/xlink" width="375pt" height="374.999991pt" viewBox="0 0 375 374.999991" version="1.2">
<defs>
<clipPath id="clip1">
  <path d="M 112.5 112.5 L 262.5 112.5 L 262.5 262.5 L 112.5 262.5 Z M 112.5 112.5 "/>
</clipPath>
<clipPath id="clip2">
  <path d="M 196 112.5 L 262.5 112.5 L 262.5 179 L 196 179 Z M 196 112.5 "/>
</clipPath>
<clipPath id="clip3">
  <path d="M 112.5 204 L 171 204 L 171 262.5 L 112.5 262.5 Z M 112.5 204 "/>
</clipPath>
</defs>
<g id="surface1">
<g clip-path="url(#clip1)" clip-rule="nonzero">
<path style=" stroke:none;fill-rule:nonzero;fill:rgb(100%,100%,100%);fill-opacity:1;" d="M 258.238281 237.679688 L 179.417969 158.84375 C 180.761719 155.15625 181.503906 151.164062 181.503906 147 C 181.503906 127.945312 166.058594 112.503906 147 112.503906 C 144.042969 112.503906 141.175781 112.878906 138.4375 113.574219 L 158.746094 133.886719 C 162.066406 137.203125 159.292969 145.359375 152.566406 152.089844 C 145.828125 158.828125 137.671875 161.601562 134.355469 158.277344 L 113.777344 137.695312 C 112.941406 140.652344 112.503906 143.785156 112.503906 147 C 112.503906 166.050781 127.949219 181.503906 147 181.503906 C 151.164062 181.503906 155.15625 180.761719 158.84375 179.40625 L 237.675781 258.230469 C 240.304688 260.867188 243.941406 262.496094 247.957031 262.496094 C 255.988281 262.496094 262.496094 255.988281 262.496094 247.960938 C 262.496094 243.941406 260.867188 240.304688 258.238281 237.679688 Z M 247.957031 253.707031 C 244.78125 253.707031 242.210938 251.125 242.210938 247.960938 C 242.210938 244.78125 244.78125 242.210938 247.957031 242.210938 C 251.136719 242.210938 253.707031 244.78125 253.707031 247.960938 C 253.707031 251.125 251.136719 253.707031 247.957031 253.707031 Z M 247.957031 253.707031 "/>
</g>
<g clip-path="url(#clip2)" clip-rule="nonzero">
<path style=" stroke:none;fill-rule:nonzero;fill:rgb(100%,100%,100%);fill-opacity:1;" d="M 231.542969 129.660156 L 236.140625 134.265625 L 206.238281 164.15625 L 210.835938 168.75 L 240.734375 138.859375 L 245.332031 143.457031 L 215.429688 173.347656 L 220.742188 178.65625 L 257.441406 141.945312 C 260.5625 138.824219 262.496094 134.519531 262.496094 129.75 C 262.496094 120.230469 254.777344 112.503906 245.25 112.503906 C 240.46875 112.503906 236.148438 114.441406 233.027344 117.574219 L 196.34375 154.257812 L 201.652344 159.558594 Z M 231.542969 129.660156 "/>
</g>
<g clip-path="url(#clip3)" clip-rule="nonzero">
<path style=" stroke:none;fill-rule:nonzero;fill:rgb(100%,100%,100%);fill-opacity:1;" d="M 134.082031 232.644531 L 125.523438 233.640625 L 112.503906 254.210938 L 120.632812 262.351562 L 120.742188 262.242188 L 120.78125 262.496094 L 141.351562 249.46875 L 142.386719 240.589844 L 170.460938 212.519531 L 162.324219 204.390625 Z M 134.082031 232.644531 "/>
</g>
</g>
</svg>
